<svg width="1273" height="710" viewBox="0 0 1273 710" fill="none" xmlns="http://www.w3.org/2000/svg">
<path d="M360.723 648.014H347.723L345.023 654.114H341.423L352.523 629.714H356.023L367.123 654.114H363.423L360.723 648.014ZM359.523 645.214L354.223 633.214L348.923 645.214H359.423H359.523Z" fill="white"/>
<path d="M379.623 651.314L380.923 648.614C382.723 650.214 385.823 651.414 389.023 651.414C392.223 651.414 395.023 649.814 395.023 647.614C395.023 641.614 380.223 645.414 380.223 636.314C380.223 627.214 383.123 629.314 389.623 629.314C396.123 629.314 395.423 630.114 397.523 631.514L396.323 634.314C394.223 632.914 391.823 632.314 389.623 632.314C385.423 632.314 383.723 634.014 383.723 636.214C383.723 642.214 398.523 638.414 398.523 647.414C398.523 656.414 395.523 654.414 389.023 654.414C382.523 654.414 381.623 653.114 379.623 651.314Z" fill="white"/>
<path d="M432.523 651.014V654.014H414.823V629.614H432.123V632.614H418.323V640.114H430.623V643.114H418.323V651.014H432.523Z" fill="white"/>
<path d="M447.123 651.314L448.423 648.614C450.223 650.214 453.323 651.414 456.523 651.414C459.723 651.414 462.523 649.814 462.523 647.614C462.523 641.614 447.723 645.414 447.723 636.314C447.723 627.214 450.623 629.314 457.123 629.314C463.623 629.314 462.923 630.114 465.023 631.514L463.823 634.314C461.723 632.914 459.323 632.314 457.123 632.314C452.923 632.314 451.223 634.014 451.223 636.214C451.223 642.214 466.023 638.414 466.023 647.414C466.023 656.414 463.023 654.414 456.523 654.414C450.023 654.414 449.123 653.114 447.123 651.314Z" fill="white"/>
<path d="M480.223 641.914C480.223 634.714 485.723 629.414 493.223 629.414C500.723 629.414 506.223 634.714 506.223 641.914C506.223 649.114 500.723 654.414 493.223 654.414C485.723 654.414 480.223 649.114 480.223 641.914ZM502.723 641.914C502.723 636.514 498.623 632.514 493.223 632.514C487.823 632.514 483.723 636.514 483.723 641.914C483.723 647.314 487.823 651.314 493.223 651.314C498.623 651.314 502.723 647.314 502.723 641.914Z" fill="white"/>
<path d="M539.023 654.114L533.723 646.614C533.223 646.614 532.723 646.614 532.223 646.614H526.223V654.014H522.723V629.614H532.223C538.623 629.614 542.423 632.814 542.423 638.114C542.423 643.414 540.423 644.614 537.023 645.814L542.823 654.014H539.023V654.114ZM538.923 638.214C538.923 634.714 536.623 632.714 532.123 632.714H526.223V643.714H532.123C536.623 643.714 538.923 641.714 538.923 638.214Z" fill="white"/>
<path d="M563.123 623.114H567.423L561.523 627.614H558.423L563.123 623.114ZM559.223 629.614H562.723V654.014H559.223V629.614Z" fill="white"/>
<path d="M596.822 648.014H583.822L581.122 654.114H577.522L588.622 629.714H592.122L603.222 654.114H599.522L596.822 648.014ZM595.622 645.214L590.322 633.214L585.022 645.214H595.522H595.622Z" fill="white"/>
<path d="M638.623 629.614H648.923C656.823 629.614 662.123 634.614 662.123 641.814C662.123 649.014 656.823 654.014 648.923 654.014H638.623V629.614ZM648.723 651.014C654.723 651.014 658.623 647.314 658.623 641.814C658.623 636.314 654.723 632.614 648.723 632.614H642.123V651.014H648.723Z" fill="white"/>
<path d="M696.323 651.014V654.014H678.623V629.614H695.923V632.614H682.123V640.114H694.423V643.114H682.123V651.014H696.323Z" fill="white"/>
<path d="M732.523 629.614H739.423V654.014H732.523V629.614Z" fill="white"/>
<path d="M777.623 654.114V641.114L771.223 651.614H768.123L761.823 641.414V654.014H755.423V629.614H761.123L769.723 643.714L778.123 629.614H783.823V654.014H777.523L777.623 654.114Z" fill="white"/>
<path d="M816.422 649.314H806.123L804.223 654.014H797.123L807.922 629.614H814.723L825.523 654.014H818.323L816.422 649.314ZM814.422 644.214L811.323 636.414L808.223 644.214H814.523H814.422Z" fill="white"/>
<path d="M854.723 641.314H860.823V651.414C858.023 653.414 854.123 654.514 850.523 654.514C842.723 654.514 837.023 649.214 837.023 641.814C837.023 634.414 842.723 629.114 850.623 629.114C858.523 629.114 858.923 630.714 861.323 633.614L856.923 637.614C855.223 635.714 853.323 634.914 851.023 634.914C846.823 634.914 844.023 637.714 844.023 641.914C844.023 646.114 846.823 648.914 850.923 648.914C855.023 648.914 853.423 648.714 854.623 648.114V641.414L854.723 641.314Z" fill="white"/>
<path d="M896.023 648.714V654.014H876.423V629.614H895.623V634.914H883.323V639.014H894.223V644.214H883.323V648.714H896.123H896.023Z" fill="white"/>
<path d="M934.323 629.614V654.014H928.623L917.823 641.014V654.014H911.023V629.614H916.723L927.523 642.614V629.614H934.323Z" fill="white"/>
<path d="M298.023 637.514C275.423 679.014 233.823 722.414 181.723 705.314C162.023 698.814 146.523 686.114 133.023 670.814C127.523 664.514 118.823 651.814 117.023 648.914C89.0228 604.814 72.2228 556.114 57.4228 506.414C47.5228 472.914 39.2228 439.114 31.5228 404.114C31.5228 413.614 12.3228 294.814 11.9228 291.514C9.62278 273.814 7.12278 256.114 4.82278 238.414C3.22278 225.814 1.52277 213.114 0.222771 200.514C-0.877229 190.114 1.92276 187.314 12.5228 187.214C20.0228 187.214 27.1228 189.314 34.0228 191.914C40.1228 194.214 42.5228 199.314 43.1228 205.614C45.9228 234.314 49.6228 262.914 53.7228 291.414C54.3228 295.814 75.5228 413.514 77.9228 424.514C90.1228 478.714 104.223 532.314 125.123 583.814C136.423 611.714 172.423 713.014 215.923 681.714C235.223 667.814 250.123 638.414 260.423 617.614C285.823 566.214 303.123 512.014 316.923 456.514C327.723 413.014 335.423 369.014 339.723 324.514C347.423 243.914 338.423 164.814 316.223 87.1137C309.023 61.9137 300.423 37.2137 290.923 12.8137C287.423 3.91365 288.823 1.81366 298.123 0.41366C306.623 -0.88634 314.623 1.01366 322.323 4.21366C327.523 6.41366 331.023 10.3137 333.123 15.6137C356.623 75.1137 373.423 136.414 380.723 200.214C383.423 223.514 385.223 246.914 385.523 270.314C386.223 326.414 378.523 381.714 366.623 436.514C356.723 482.214 342.423 528.514 326.523 572.414C319.523 591.914 310.223 615.514 298.223 637.514H298.023Z" fill="#CDBCDC"/>
<path d="M1267.42 281.414C1257.72 276.614 1247.62 276.914 1237.42 279.414C1229.32 281.414 1229.12 289.214 1226.72 295.314C1226.02 297.114 1173.32 415.114 1172.62 416.314C1170.62 419.414 1168.62 422.514 1166.42 425.514C1157.82 437.514 1147.42 450.514 1135.82 459.814C1128.92 465.314 1120.42 469.314 1111.62 469.314C1088.52 469.214 1075.42 435.914 1068.22 418.214C1066.02 412.814 1046.32 350.214 1088.02 320.914C1116.82 307.714 1142.22 289.614 1164.82 267.414C1193.42 239.514 1213.92 207.414 1218.02 166.814C1221.02 137.214 1209.22 114.514 1180.42 103.914C1151.72 93.3137 1125.32 99.9137 1101.62 117.714C1072.12 139.814 1052.82 170.014 1037.12 202.714C1017.12 244.314 1006.32 291.614 993.923 335.814C981.923 378.514 972.723 421.914 960.923 464.714C957.623 476.614 924.823 582.214 915.223 577.114C909.823 574.214 911.823 546.914 911.823 541.414C911.823 524.814 913.523 508.214 914.723 491.714C916.523 465.214 918.823 438.814 920.723 412.414C922.323 389.014 923.323 365.514 925.023 342.114C927.323 310.214 929.523 278.314 928.623 246.314C928.423 238.714 927.223 231.114 925.123 223.814C923.623 218.714 921.323 214.014 917.223 210.514C901.023 196.414 877.823 193.314 858.623 203.214C840.123 212.814 825.723 227.514 812.623 243.314C769.323 295.214 732.423 351.214 704.723 413.114C702.723 417.514 700.623 421.814 698.623 426.214C697.423 424.314 697.223 422.814 697.323 421.314C698.223 396.714 699.023 372.214 700.123 347.614C700.823 332.814 701.623 318.114 703.123 303.414C704.323 291.014 702.823 287.714 691.223 282.914C688.223 281.714 685.023 280.814 681.823 280.114C666.223 276.814 659.323 281.514 656.623 297.214C656.523 298.114 656.423 298.914 656.223 299.814C655.723 302.014 637.323 411.714 635.623 419.914C633.023 432.514 630.523 445.114 627.523 457.614C622.323 479.614 616.723 501.614 607.523 522.414C606.723 524.314 606.323 527.314 603.823 527.214C601.723 527.214 601.423 524.414 600.523 522.714C594.123 510.614 591.423 497.314 588.823 484.114C580.623 442.514 578.823 400.414 578.323 358.114C578.323 351.614 578.323 345.014 578.223 338.514C578.023 330.714 574.923 327.014 567.423 325.114C559.823 323.114 552.323 323.714 544.823 325.614C537.823 327.314 533.523 331.414 531.623 338.514C526.923 356.214 521.923 373.814 517.123 391.414C506.623 429.514 494.823 467.014 476.023 502.014C468.723 515.414 460.723 528.314 449.823 539.314C446.223 542.914 443.923 542.614 441.223 538.514C433.823 527.214 431.323 514.414 430.623 501.314C427.123 431.914 462.223 364.914 511.423 317.614C524.823 304.714 546.923 296.414 564.623 291.414C568.023 290.514 571.323 289.614 574.023 287.114C577.623 283.714 577.423 280.614 573.123 278.214C566.623 274.714 559.523 273.514 552.223 274.914C534.123 278.314 516.823 284.514 500.823 293.514C492.323 298.314 416.323 351.014 389.223 468.314C384.423 489.314 386.323 510.914 393.723 531.514C400.123 549.314 412.123 560.714 431.423 563.614C458.523 567.714 480.123 558.314 497.023 537.214C514.523 515.414 526.323 490.414 536.423 464.614C537.423 462.114 537.923 459.314 541.023 456.614C541.723 460.714 542.323 464.114 542.923 467.414C546.423 489.814 551.723 511.614 560.923 532.614C574.123 563.114 628.123 565.014 642.823 537.314C650.123 523.514 656.323 509.514 660.523 494.614C661.923 489.714 663.423 489.014 667.023 493.014C673.223 499.814 681.423 502.814 690.223 503.914C706.523 506.114 710.823 503.614 718.023 488.714C719.923 484.814 721.823 480.914 723.523 476.914C736.323 446.114 749.223 415.414 765.023 386.014C768.523 379.414 771.423 372.414 777.123 365.714C776.823 364.614 784.923 355.214 785.723 354.014C792.423 344.214 799.123 334.414 805.723 324.614C821.523 301.214 836.623 276.114 855.023 254.714C859.223 249.914 879.723 224.814 886.223 229.314C891.723 233.114 888.223 252.114 888.123 257.914C887.923 269.614 886.923 281.314 886.223 292.914C885.623 303.014 879.923 396.114 879.923 397.314C879.223 407.914 878.523 418.614 877.723 429.214C876.323 448.514 875.023 467.814 873.423 487.114C871.223 512.514 869.823 537.914 872.623 563.314C874.323 578.714 878.323 592.814 892.423 602.014C902.723 608.714 914.223 612.014 926.323 612.514C935.823 612.914 944.223 609.914 950.723 602.214C961.123 589.814 967.623 575.314 973.323 560.514C991.423 513.314 1005.52 464.814 1020.02 416.414C1020.52 414.814 1020.32 412.914 1023.02 411.814C1025.62 418.214 1028.12 424.614 1030.92 430.914C1041.42 453.814 1054.82 474.614 1079.82 483.414C1118.32 497.014 1162.52 486.914 1193.92 449.814C1208.62 432.414 1220.52 413.214 1231.22 393.214C1232.92 390.014 1250.62 350.414 1251.22 348.714C1258.32 329.614 1265.42 310.414 1272.52 291.314V284.814C1270.92 283.714 1269.32 282.514 1267.62 281.714L1267.42 281.414ZM1054.92 299.714C1051.62 299.914 1052.72 296.514 1053.02 294.614C1056.02 273.914 1060.42 253.514 1067.72 233.814C1078.72 204.014 1093.62 176.314 1113.92 151.714C1123.72 139.914 1134.62 129.414 1147.82 121.414C1153.32 118.114 1157.72 118.414 1162.42 123.014C1172.82 133.014 1175.72 145.614 1175.62 163.514C1174.72 185.514 1165.42 209.014 1150.42 230.214C1130.82 258.014 1105.62 279.814 1076.62 297.314C1069.72 301.514 1062.12 299.314 1054.92 299.714Z" fill="#CDBCDC"/>
<path d="M69.0227 375.214H52.7227V403.314H22.8228V297.514H71.2227C100.123 297.514 118.223 312.514 118.223 336.614C118.223 360.714 110.623 363.714 97.5227 370.014L120.323 403.214H88.3228L69.1227 375.114L69.0227 375.214ZM69.3228 321.114H52.7227V352.114H69.3228C81.7228 352.114 87.9228 346.414 87.9228 336.714C87.9228 327.014 81.7228 321.114 69.3228 321.114Z" fill="white"/>
<path d="M195.623 350.414C195.623 318.714 220.523 295.414 254.423 295.414C288.323 295.414 313.223 318.714 313.223 350.414C313.223 382.114 288.323 405.414 254.423 405.414C220.523 405.414 195.623 382.114 195.623 350.414ZM282.923 350.414C282.923 332.114 270.423 320.214 254.323 320.214C238.223 320.214 225.723 332.114 225.723 350.414C225.723 368.714 238.223 380.614 254.323 380.614C270.423 380.614 282.923 368.714 282.923 350.414Z" fill="white"/>
<path d="M496.023 297.514V403.314H471.423L424.723 346.914V403.314H395.423V297.514H420.023L466.723 353.914V297.514H496.023Z" fill="white"/>
<path d="M583.623 297.514H633.623C668.723 297.514 692.723 317.914 692.723 350.414C692.723 382.914 668.723 403.314 633.623 403.314H583.623V297.514ZM632.423 379.414C650.423 379.414 662.523 368.714 662.523 350.414C662.523 332.114 650.423 321.414 632.423 321.414H613.523V379.414H632.423Z" fill="white"/>
<path d="M769.523 350.414C769.523 318.714 794.423 295.414 828.323 295.414C862.223 295.414 887.123 318.714 887.123 350.414C887.123 382.114 862.223 405.414 828.323 405.414C794.423 405.414 769.523 382.114 769.523 350.414ZM856.823 350.414C856.823 332.114 844.323 320.214 828.223 320.214C812.123 320.214 799.623 332.114 799.623 350.414C799.623 368.714 812.123 380.614 828.223 380.614C844.323 380.614 856.823 368.714 856.823 350.414Z" fill="white"/>
<path d="M1069.92 297.514V403.314H1045.32L998.623 346.914V403.314H969.323V297.514H993.923L1040.62 353.914V297.514H1069.92Z" fill="white"/>
<path d="M1230.22 376.814H1174.02L1162.42 403.214H1146.82L1194.72 297.414H1209.72L1257.82 403.214H1241.92L1230.32 376.814H1230.22ZM1224.92 364.714L1202.12 312.914L1179.32 364.714H1224.92Z" fill="white"/>
</svg>
